<!-- This comment states that, to the best of my knowledge at the time of writing, the bell icon used in this logo is licensed under the public domain -->

<?xml version="1.0" encoding="UTF-8" standalone="no"?>
<!-- Created with Inkscape (http://www.inkscape.org/) -->

<svg
   width="512"
   height="512"
   viewBox="0 0 135.46666 135.46667"
   version="1.1"
   id="svg1"
   xmlns="http://www.w3.org/2000/svg"
   xmlns:svg="http://www.w3.org/2000/svg">
  <defs
     id="defs1" />
  <g
     id="layer1">
    <ellipse
       style="fill:#f80085;fill-opacity:1;stroke:none;stroke-width:5.29167;stroke-dasharray:none;stroke-opacity:1;paint-order:stroke markers fill"
       id="path4"
       cx="23.853804"
       cy="11.622884"
       rx="1.8007284"
       ry="1.7539562" />
    <path
       style="fill:#f80085;fill-opacity:1;stroke:none;stroke-width:6.17659"
       id="rect1"
       width="135.467"
       height="135.46666"
       x="-3.5527137e-15"
       y="-3.5527137e-15"
       d="M 13.229166,0 H 122.23783 A 13.229166,13.229166 45 0 1 135.467,13.229166 V 122.23749 a 13.229166,13.229166 135 0 1 -13.22917,13.22917 H 13.229166 A 13.229166,13.229166 45 0 1 0,122.23749 V 13.229166 A 13.229166,13.229166 135 0 1 13.229166,0 Z"
       transform="matrix(0.74999818,0,0,0.74999809,16.933333,16.933333)" />
    <path
       d="M 197.21565,124.52459 V 32.467535 h 32.68221 q 15.75516,0 24.60931,8.593729 8.85414,8.46352 8.85414,28.385344 v 17.838496 q 0,13.281216 -4.16665,21.484316 -4.16666,8.20311 -11.84893,11.97914 -7.68227,3.77603 -18.09891,3.77603 z m 20.05203,-17.31766 h 12.36976 q 6.90102,0 10.28643,-4.8177 3.51562,-4.947902 3.51562,-15.49475 v -16.276 q 0,-10.937472 -3.2552,-15.885376 -3.2552,-4.947904 -10.54685,-4.947904 h -12.36976 z m 91.27581,18.35933 q -17.05725,0 -25.26036,-9.37498 -8.07289,-9.37498 -8.07289,-27.734304 v -20.18224 q 0,-18.359328 8.33331,-27.734304 8.33331,-9.374977 25.65098,-9.374977 15.88537,0 24.73952,8.593728 8.98435,8.593729 8.98435,28.515553 v 20.18224 q 0,13.281214 -4.16666,21.484324 -4.16665,8.07289 -11.97913,11.84892 -7.68228,3.77604 -18.22912,3.77604 z m -13.0208,-37.630116 q 0,10.677056 2.99478,15.234336 3.12499,4.55728 10.67706,4.55728 7.03123,0 10.28643,-4.55728 3.38541,-4.687488 3.38541,-15.234336 V 69.446608 q 0,-11.197888 -3.38541,-16.015584 -3.2552,-4.817696 -10.28643,-4.817696 -7.42186,0 -10.54685,4.817696 -3.12499,4.817696 -3.12499,16.015584 z M 355.809,124.52459 V 32.467535 h 20.18224 l 29.2968,52.213409 V 32.467535 h 19.92183 v 92.057055 h -19.92183 l -29.2968,-51.822782 v 51.822782 z m 116.14554,1.04167 q -17.31767,0 -25.65098,-9.37498 -8.33331,-9.37498 -8.33331,-27.734304 v -20.18224 q 0,-18.359328 8.33331,-27.734304 8.33331,-9.374977 26.0416,-9.374977 15.36454,0 24.3489,7.942688 9.11456,7.942689 9.11456,22.656193 V 62.806 h -20.05204 v -1.041664 q 0,-5.338528 -3.64582,-9.244768 -3.51562,-3.90624 -10.02602,-3.90624 -7.55206,0 -10.67705,4.817696 -3.12499,4.817696 -3.12499,16.015584 v 18.489536 q 0,10.807264 3.51561,15.364546 3.51562,4.42707 11.06768,4.42707 7.29165,0 10.28643,-3.51562 2.99479,-3.64582 2.99479,-10.677052 V 90.14968 H 471.82433 V 73.613264 h 33.85408 v 16.406208 q 0,17.578078 -8.20311,26.562428 -8.2031,8.98436 -25.52076,8.98436 z"
       id="text2"
       style="font-weight:800;font-size:133.333px;font-family:DINishPreview;-inkscape-font-specification:'DINishPreview Ultra-Bold';text-align:end;text-anchor:end;white-space:pre;fill:#ffffff;stroke-width:10"
       transform="matrix(0.19843702,0,0,0.198437,14.192591,89.646753)"
       aria-label="DONG" />
    <g
       id="g2"
       transform="matrix(0.10092738,-0.02225938,0.02225938,0.10092738,-2.959662,13.198496)"
       style="fill:#ffffff;stroke:#f80085;stroke-width:51.2;stroke-dasharray:none;stroke-opacity:1;paint-order:stroke markers fill">
	<path
   class="st0"
   d="M 473.011,375.511 C 434.264,331.594 405.969,262.942 402.486,197.063 400.274,155.316 364.816,81.282 291.096,62.947 c 3.899,-6.315 6.196,-13.749 6.188,-21.666 0.008,-11.35 -4.637,-21.768 -12.088,-29.194 C 277.771,4.637 267.353,-0.008 256.003,0 244.644,-0.008 234.235,4.637 226.81,12.088 c -7.451,7.426 -12.096,17.844 -12.088,29.194 -0.008,7.917 2.289,15.351 6.188,21.666 -73.729,18.335 -109.178,92.369 -111.39,134.116 -3.492,65.879 -31.778,134.531 -70.533,178.448 -25.531,28.938 81.383,73.194 217.016,73.194 135.633,0 242.547,-44.257 217.008,-73.195 z M 263.276,48.554 c -1.916,1.882 -4.382,3.001 -7.273,3.01 -2.89,-0.009 -5.366,-1.128 -7.273,-3.01 -1.882,-1.907 -3.001,-4.382 -3.009,-7.273 0.008,-2.89 1.127,-5.357 3.009,-7.273 1.916,-1.882 4.382,-3 7.273,-3.009 2.89,0.009 5.357,1.128 7.273,3.009 1.882,1.916 3.001,4.383 3.009,7.273 -0.008,2.891 -1.127,5.366 -3.009,7.273 z"
   id="path1"
   style="fill:#ffffff;stroke:#f80085;stroke-width:51.2;stroke-dasharray:none;stroke-opacity:1;paint-order:stroke markers fill" />

	<path
   class="st0"
   d="m 315.66205,516.92622 c 29.125,0 52.749,-23.523 52.944,-52.606 -33.5,6.145 -69.948,9.57 -104.889,9.926 4.79,24.328 26.218,42.68 51.945,42.68 z"
   id="path2"
   style="fill:#ffffff;stroke:#f80085;stroke-width:51.2;stroke-dasharray:none;stroke-opacity:1;paint-order:stroke markers fill" />

</g>
  </g>
</svg>
